<svg width="85" height="78" viewBox="0 0 85 78" fill="none" xmlns="http://www.w3.org/2000/svg">
<path d="M2 35H27.6667L35 24L49.6667 46L57 35H82.6667" stroke="white" stroke-width="4" stroke-miterlimit="10" stroke-linecap="round" stroke-linejoin="round"/>
<path d="M16.6665 46.7333C24.3557 57.01 32.9452 66.5811 42.3332 75.3333C51.7211 66.5811 60.3106 57.01 67.9998 46.7333" stroke="white" stroke-width="4" stroke-miterlimit="10" stroke-linecap="round" stroke-linejoin="round"/>
<path d="M78.9998 21.9063C78.9718 16.619 76.8524 11.5576 73.1047 7.82781C69.357 4.09798 64.2856 2.00283 58.9982 2C55.7009 2.02297 52.4592 2.85103 49.5548 4.41216C46.6504 5.9733 44.1714 8.22025 42.3332 10.9577C40.495 8.22025 38.0159 5.9733 35.1115 4.41216C32.2072 2.85103 28.9654 2.02297 25.6682 2C20.3808 2.00283 15.3093 4.09798 11.5616 7.82781C7.81396 11.5576 5.6946 16.619 5.6665 21.9063" stroke="white" stroke-width="4" stroke-miterlimit="10" stroke-linecap="round" stroke-linejoin="round"/>
</svg>
